<svg version="1.0" xmlns="http://www.w3.org/2000/svg" width="222.667" height="222.667" viewBox="0 0 167 167"><path d="M127.6 13c-3.9 6.1-7.1 11-7.2 11-.2 0-2-1.1-4.1-2.6l-3.7-2.5-31.1.3c-30.4.3-31.1.3-34.2 2.6-5.2 3.7-8.4 14.9-9.8 34.2-1.3 16.8-2.3 29.7-3 38-.3 3-.8 9.5-1.1 14.5-.4 4.9-.8 10.6-1.1 12.5-.2 1.9-.7 10.1-1 18.2-.6 17.2.6 22.4 6.2 25.8 3 1.9 5 2 33.6 2s30.6-.1 33.7-2c7.2-4.4 9.8-13.6 11.7-41 .3-4.1.7-10.2 1-13.5.7-7.6 1.2-14.8 2-25 .6-7.4 1-8.5 5.5-15.5 4.9-7.6 5.4-9.1 6.5-22 .3-3.6.8-8.1 1-10 .2-1.9.6-6.2 1-9.5.3-3.3.7-8 1-10.5.2-2.5.7-7.1 1-10.3.3-3.1.2-5.7-.2-5.7-.4.1-3.9 5-7.7 11z"/></svg>